<!DOCTYPE svg PUBLIC "-//W3C//DTD SVG 1.1//EN" "http://www.w3.org/Graphics/SVG/1.1/DTD/svg11.dtd">
<!-- Uploaded to: SVG Repo, www.svgrepo.com, Transformed by: SVG Repo Mixer Tools -->
<svg version="1.1" id="_x32_" xmlns="http://www.w3.org/2000/svg" xmlns:xlink="http://www.w3.org/1999/xlink" viewBox="0 0 512 512" xml:space="preserve" width="800px" height="800px" fill="#237841" stroke="#237841">
<g id="SVGRepo_bgCarrier" stroke-width="0"/>
<g id="SVGRepo_tracerCarrier" stroke-linecap="round" stroke-linejoin="round"/>
<g id="SVGRepo_iconCarrier"> <style type="text/css"> .st0{fill:#237841;} </style> <g> <rect y="230.666" class="st0" width="512" height="195.767"/> <path class="st0" d="M300.524,113.253c2.313,2.107,5.992,4.252,10.74,6.068c9.503,3.657,23.167,6.053,38.288,6.038 c11.334,0.007,21.854-1.329,30.418-3.55c8.564-2.206,15.144-5.374,18.601-8.557c1.008-0.923,1.71-1.801,2.229-2.648v-3.252 c0-12.037-23.205-21.785-51.829-21.785c-28.624,0-51.821,9.748-51.821,21.785h0.114 C297.272,109.192,298.196,111.116,300.524,113.253z"/> <path class="st0" d="M114.581,113.253c2.313,2.107,5.992,4.252,10.74,6.068c9.496,3.657,23.166,6.053,38.288,6.038 c11.335,0.007,21.854-1.329,30.41-3.55c8.572-2.206,15.144-5.374,18.61-8.557c1-0.923,1.702-1.801,2.222-2.648v-3.252 c0-12.037-23.198-21.785-51.822-21.785S111.2,95.315,111.2,107.352h0.122C111.322,109.192,112.253,111.116,114.581,113.253z"/> <path class="st0" d="M447.996,153.358h-32.754v21.029c0,12.03-23.204,21.785-51.821,21.785c-27.186,0-49.444-8.808-51.615-19.999 c9.419,4.084,22.574,6.626,37.165,6.626c28.624,0,51.829-9.756,51.829-21.785v-31.861c-2.71,1.725-5.794,3.267-9.29,4.618 c-11.038,4.222-25.739,6.709-41.959,6.717c-12.16,0-23.48-1.412-33.036-3.886c-7.786-2.03-14.388-4.74-19.365-8.19v24.945H229.3 v21.029c0,12.03-23.205,21.785-51.822,21.785c-27.193,0-49.44-8.801-51.615-19.991c9.419,4.076,22.579,6.618,37.166,6.618 c28.624,0,51.822-9.756,51.822-21.785v-31.861c-2.702,1.725-5.786,3.267-9.29,4.618c-11.03,4.222-25.731,6.709-41.952,6.717 c-12.168,0-23.48-1.412-33.036-3.886c-7.786-2.03-14.388-4.74-19.373-8.19v24.945H64.004L0,207.316h512L447.996,153.358z"/> </g> </g>
</svg>